<svg xmlns="http://www.w3.org/2000/svg" viewBox="0 0 1024 1024" xml:space="preserve" style="fill-rule:nonzero;clip-rule:evenodd;stroke-linecap:round;stroke-linejoin:round"><path stroke-linejoin="miter" fill="none" stroke-width="64" stroke="#ea3b59" d="M908 405.792c0-29.328-15.024-55.88-39.315-75.1-24.29-19.219-57.847-31.107-94.913-31.107-37.066 0-70.623 9.865-94.914 27.061-24.29 17.197-39.314 41.726-39.314 71.054 0 29.329 12.016 49.096 34.803 65.935 12.302 9.091 27.744 17.329 46.129 25.757 15.668 7.183 33.474 14.503 53.296 22.608 43.081 17.615 76.638 31.526 99.425 48.365C895.984 577.204 908 596.971 908 626.3c0 29.328-15.024 53.857-39.315 71.054-24.29 17.196-62.905 27.061-99.971 27.061s-78.032-13.427-111.396-46.28C626.549 647.838 591.063 580.078 555.597 512c-35.466-68.078-50.172-110.946-91.648-152.422-41.477-41.477-89.172-59.993-143.534-59.993-54.362 0-108.723 20.738-150.2 62.215C128.738 403.276 108 457.638 108 512c0 54.362 20.738 108.724 62.215 150.2 41.477 41.477 95.838 62.215 150.2 62.215 54.362 0 108.724-20.738 150.2-62.215"/><path fill="#e13b59" d="M208 512c0-60.751 49.249-110 110-110s110 49.249 110 110-49.249 110-110 110-110-49.249-110-110Z"/></svg>