<svg version="1.0" xmlns="http://www.w3.org/2000/svg" width="933.333" height="933.333" viewBox="0 0 700 700"><path d="M199 184.1c-2.5.4-6.5 1-8.9 1.4-8.3 1.2-23.1 5.5-33.4 9.6-37.8 14.9-70.4 45.4-88.2 82.5-2.5 5.2-4.5 10-4.5 10.7 0 .7-.4 1.7-.8 2.2-2.3 2.6-7.4 21.8-9.6 36-2.1 13.6-1.5 41.2 1.3 54.5 2.9 13.6 2.4 12.1 6.1 23 15.9 47.7 55.7 87.6 103.5 103.8 9.2 3.1 19.3 5.7 25.5 6.7 1.9.3 6.4.9 10 1.5 9.4 1.3 38 .5 47.5-1.4 4.4-.9 8.9-1.8 10.1-2 1.2-.2 5.4-1.5 9.5-2.7 4.1-1.3 7.6-2.3 7.9-2.4 7.8-2.4 26.3-11.6 35.5-17.8 18.2-12.2 29.7-23.2 31.8-30.3 4.2-14.6-5.7-28.3-20.6-28.4-6.7 0-10.2 1.7-19.3 9.7-17.9 15.6-31.7 23.1-52.9 28.6-11.7 3.1-17.4 3.7-31 3.7-9.5 0-11.5-.2-20.4-1.5-10.5-1.5-27.4-7.4-37.1-12.8-2.5-1.4-5.9-3.3-7.7-4.2-5.3-2.8-21.8-17-27.2-23.5-12.8-15.4-23.5-35.8-26.5-50.6-.3-1-.9-3.9-1.5-6.4-2.2-9.7-3-26.7-1.7-37.1 4.1-33.8 20.6-63.6 46.6-83.9 16.8-13 38-22.3 56.5-24.6 2.2-.3 4.6-.7 5.4-1 1.6-.5 25.3-.5 29.1 0 15.2 2.2 25.9 5.5 37.8 11.7 16.1 8.4 28.3 19 43.3 37.6 1.4 1.8 7.9 11.7 12.6 19.1.8 1.3 9.4 18.1 19.2 37.5 19.6 38.7 27.2 53.5 36.8 70.6 3.5 6.2 6.3 11.5 6.3 11.7 0 .2 2.5 4.4 5.5 9.5 3 5 5.5 9.3 5.5 9.5 0 .5 18.2 27.9 18.9 28.4.4.3 2.4 2.7 4.6 5.5 18.2 23 46 39.8 76.5 46.2 9.3 1.9 35.5 2.5 46.5 1 40-5.5 70.4-23.3 85.3-49.9 2.6-4.5 7-15.7 7.6-19.3.3-1.7.8-4.3 1.2-6 1.1-6.1 1.1-17.8-.1-25.3-5.6-34.5-27.3-53.6-90.5-79.7-52.4-21.7-60.8-25.6-73.7-34.1-13.9-9.3-17.7-15.3-17.7-28.9-.1-7.9.2-9.7 2.8-14.8 9.2-18.9 34.8-30.8 66.1-30.8 37.1 0 67.6 20.8 70 47.6.9 9.3 2.1 13 5.8 17.1 8 9.2 22 9.9 31.4 1.7 7.5-6.6 8.7-21 3.2-39.8-1.2-4.1-7.5-18-9-19.9-.5-.6-2.9-3.9-5.4-7.3-8.2-11.1-20.4-21.1-35.7-29.1-6.9-3.6-19.9-8.8-24.3-9.6-1.1-.3-4.2-1-7-1.6-9.1-2.1-13.9-2.5-29.5-2.5-18.7 0-24 .7-40 5.1-43.9 12-71.9 43.7-72.3 81.9-.1 11.7.6 17.6 3.4 25.9 7.4 21.8 22.6 36.9 53.1 52.5 11.9 6 21.8 10.4 56.3 24.6C565.3 388.7 581 397 590 406c6.3 6.3 8.4 11.8 8.4 22 .1 7.3-.3 9.3-2.7 14.2-4.1 8.4-15.5 19.1-22.7 21.3-1.4.4-2.9 1.1-3.5 1.5-1.1.8-13.5 4.7-17.5 5.5-12.9 2.6-29.5 3.5-38 2-1.6-.3-4.5-.7-6.2-1-16.2-2.7-37.7-16-49.4-30.6-7.3-9.1-19.9-28.4-28.7-44.2-14.1-25.1-20-36.2-41.7-79.2-10.3-20.4-20.2-39.4-21.9-42.3-1.7-2.9-3.1-5.5-3.1-5.8 0-.9-11.4-17.1-16.9-23.9-13.8-17.3-33.8-34.3-52.5-44.5-13.2-7.3-32.7-13.6-50.1-16.3-9.5-1.5-36.9-1.9-44.5-.6z"/><path d="M201.4 276.6c-20.9 4.4-40.3 19.1-50.2 37.9-6.7 12.9-8.5 20.4-8.5 36 0 11.9.3 13.8 3.1 22.1 10.7 31.7 37.6 51.7 70.1 52.3 21.8.4 39.7-7 55.1-22.8 8.8-9 14.1-17.6 17.4-28.2 4.7-14.7 5.2-24 2.2-40.6-3.5-19.1-18.7-39.1-37.8-49.6-14-7.8-34.9-10.6-51.4-7.1z"/></svg>